HIERARCHY
ROOT Root
{
  OFFSET 0.0 0.0 0.0
  CHANNELS 6 Xposition Yposition Zposition Zrotation Yrotation Xrotation
  JOINT Hips
  {
    OFFSET 0.0 100.0 0.0
    CHANNELS 6 Xposition Yposition Zposition Zrotation Yrotation Xrotation
    JOINT Spine1
    {
      OFFSET 5.003913 -0.037094 -0.013727
      CHANNELS 3 Zrotation Yrotation Xrotation
      JOINT Spine2
      {
        OFFSET 7.125363 -1e-06 0.0
        CHANNELS 3 Zrotation Yrotation Xrotation
        JOINT Chest
        {
          OFFSET 7.594027 1e-06 0.0
          CHANNELS 3 Zrotation Yrotation Xrotation
          JOINT Neck1
          {
            OFFSET 26.313086 -0.460272 -0.181672
            CHANNELS 3 Zrotation Yrotation Xrotation
            JOINT Neck2
            {
              OFFSET 8.045911 0.0 0.0
              CHANNELS 3 Zrotation Yrotation Xrotation
              JOINT Head
              {
                OFFSET 6.432774 0.0 0.0
                CHANNELS 3 Zrotation Yrotation Xrotation
                JOINT HeadEnd
                {
                  OFFSET 16.169773 0.06451 0.00362
                  CHANNELS 3 Zrotation Yrotation Xrotation
                }
                JOINT Jaw
                {
                  OFFSET 0.108741 3.12938 0.002639
                  CHANNELS 3 Zrotation Yrotation Xrotation
                }
                JOINT LeftEye
                {
                  OFFSET 4.45173 8.166359 3.206392
                  CHANNELS 3 Zrotation Yrotation Xrotation
                }
                JOINT RightEye
                {
                  OFFSET 4.436895 8.135758 -3.222429
                  CHANNELS 3 Zrotation Yrotation Xrotation
                }
              }
            }
          }
          JOINT LeftShoulder
          {
            OFFSET 23.218927 5.195579 1.621656
            CHANNELS 3 Zrotation Yrotation Xrotation
            JOINT LeftArm
            {
              OFFSET 15.902118 2e-06 -2e-06
              CHANNELS 3 Zrotation Yrotation Xrotation
              JOINT LeftForeArm
              {
                OFFSET 28.739307 0.0 -1e-06
                CHANNELS 3 Zrotation Yrotation Xrotation
                JOINT LeftHand
                {
                  OFFSET 27.093981 -4e-06 0.0
                  CHANNELS 3 Zrotation Yrotation Xrotation
                  JOINT LeftHandThumb1
                  {
                    OFFSET 2.276781 3.380274 0.83384
                    CHANNELS 3 Zrotation Yrotation Xrotation
                    JOINT LeftHandThumb2
                    {
                      OFFSET 4.705309 -1e-06 -1e-06
                      CHANNELS 3 Zrotation Yrotation Xrotation
                      JOINT LeftHandThumb3
                      {
                        OFFSET 2.798515 0.0 3e-06
                        CHANNELS 3 Zrotation Yrotation Xrotation
                        JOINT LeftHandThumbEnd
                        {
                          OFFSET 3.180793 4e-06 -4e-06
                          CHANNELS 3 Zrotation Yrotation Xrotation
                        }
                      }
                    }
                  }
                  JOINT LeftHandIndex1
                  {
                    OFFSET 3.247786 2.352677 0.137192
                    CHANNELS 3 Zrotation Yrotation Xrotation
                    JOINT LeftHandIndex2
                    {
                      OFFSET 6.367095 1e-06 0.0
                      CHANNELS 3 Zrotation Yrotation Xrotation
                      JOINT LeftHandIndex3
                      {
                        OFFSET 3.662364 0.0 0.0
                        CHANNELS 3 Zrotation Yrotation Xrotation
                        JOINT LeftHandIndex4
                        {
                          OFFSET 2.329242 4e-06 -4e-06
                          CHANNELS 3 Zrotation Yrotation Xrotation
                          JOINT LeftHandIndexEnd
                          {
                            OFFSET 2.767823 1e-06 0.0
                            CHANNELS 3 Zrotation Yrotation Xrotation
                          }
                        }
                      }
                    }
                  }
                  JOINT LeftHandMiddle1
                  {
                    OFFSET 3.163612 0.945023 -0.406112
                    CHANNELS 3 Zrotation Yrotation Xrotation
                    JOINT LeftHandMiddle2
                    {
                      OFFSET 6.276789 3e-06 0.0
                      CHANNELS 3 Zrotation Yrotation Xrotation
                      JOINT LeftHandMiddle3
                      {
                        OFFSET 4.35652 -1e-06 4e-06
                        CHANNELS 3 Zrotation Yrotation Xrotation
                        JOINT LeftHandMiddle4
                        {
                          OFFSET 2.996877 0.0 8e-06
                          CHANNELS 3 Zrotation Yrotation Xrotation
                          JOINT LeftHandMiddleEnd
                          {
                            OFFSET 2.323256 3e-06 -4e-06
                            CHANNELS 3 Zrotation Yrotation Xrotation
                          }
                        }
                      }
                    }
                  }
                  JOINT LeftHandRing1
                  {
                    OFFSET 2.882606 -0.309162 0.107445
                    CHANNELS 3 Zrotation Yrotation Xrotation
                    JOINT LeftHandRing2
                    {
                      OFFSET 6.033198 0.0 4e-06
                      CHANNELS 3 Zrotation Yrotation Xrotation
                      JOINT LeftHandRing3
                      {
                        OFFSET 4.350578 3e-06 0.0
                        CHANNELS 3 Zrotation Yrotation Xrotation
                        JOINT LeftHandRing4
                        {
                          OFFSET 2.651321 2e-06 -7e-06
                          CHANNELS 3 Zrotation Yrotation Xrotation
                          JOINT LeftHandRingEnd
                          {
                            OFFSET 1.937663 1e-06 -4e-06
                            CHANNELS 3 Zrotation Yrotation Xrotation
                          }
                        }
                      }
                    }
                  }
                  JOINT LeftHandPinky1
                  {
                    OFFSET 2.865315 -1.525436 0.575687
                    CHANNELS 3 Zrotation Yrotation Xrotation
                    JOINT LeftHandPinky2
                    {
                      OFFSET 5.54936 1e-06 -8e-06
                      CHANNELS 3 Zrotation Yrotation Xrotation
                      JOINT LeftHandPinky3
                      {
                        OFFSET 3.070974 0.0 -4e-06
                        CHANNELS 3 Zrotation Yrotation Xrotation
                        JOINT LeftHandPinky4
                        {
                          OFFSET 1.549672 1e-06 0.0
                          CHANNELS 3 Zrotation Yrotation Xrotation
                          JOINT LeftHandPinkyEnd
                          {
                            OFFSET 1.952123 0.0 0.0
                            CHANNELS 3 Zrotation Yrotation Xrotation
                          }
                        }
                      }
                    }
                  }
                }
              }
            }
          }
          JOINT RightShoulder
          {
            OFFSET 23.161716 5.296122 -1.380114
            CHANNELS 3 Zrotation Yrotation Xrotation
            JOINT RightArm
            {
              OFFSET -16.027195 -2e-06 1.1e-05
              CHANNELS 3 Zrotation Yrotation Xrotation
              JOINT RightForeArm
              {
                OFFSET -28.736639 4e-06 2e-06
                CHANNELS 3 Zrotation Yrotation Xrotation
                JOINT RightHand
                {
                  OFFSET -27.133619 6e-06 0.0
                  CHANNELS 3 Zrotation Yrotation Xrotation
                  JOINT RightHandThumb1
                  {
                    OFFSET -2.274328 -3.351035 -0.83067
                    CHANNELS 3 Zrotation Yrotation Xrotation
                    JOINT RightHandThumb2
                    {
                      OFFSET -4.703594 -3e-06 2e-06
                      CHANNELS 3 Zrotation Yrotation Xrotation
                      JOINT RightHandThumb3
                      {
                        OFFSET -2.794935 -4e-06 -3e-06
                        CHANNELS 3 Zrotation Yrotation Xrotation
                        JOINT RightHandThumbEnd
                        {
                          OFFSET -3.183852 4e-06 1e-06
                          CHANNELS 3 Zrotation Yrotation Xrotation
                        }
                      }
                    }
                  }
                  JOINT RightHandIndex1
                  {
                    OFFSET -3.253496 -2.33755 -0.127667
                    CHANNELS 3 Zrotation Yrotation Xrotation
                    JOINT RightHandIndex2
                    {
                      OFFSET -6.344434 0.0 0.0
                      CHANNELS 3 Zrotation Yrotation Xrotation
                      JOINT RightHandIndex3
                      {
                        OFFSET -3.654871 0.0 -8e-06
                        CHANNELS 3 Zrotation Yrotation Xrotation
                        JOINT RightHandIndex4
                        {
                          OFFSET -2.327586 -1e-06 0.0
                          CHANNELS 3 Zrotation Yrotation Xrotation
                          JOINT RightHandIndexEnd
                          {
                            OFFSET -2.770001 3e-06 8e-06
                            CHANNELS 3 Zrotation Yrotation Xrotation
                          }
                        }
                      }
                    }
                  }
                  JOINT RightHandMiddle1
                  {
                    OFFSET -3.168223 -0.944764 0.411762
                    CHANNELS 3 Zrotation Yrotation Xrotation
                    JOINT RightHandMiddle2
                    {
                      OFFSET -6.266691 -1e-06 -4e-06
                      CHANNELS 3 Zrotation Yrotation Xrotation
                      JOINT RightHandMiddle3
                      {
                        OFFSET -4.348901 0.0 0.0
                        CHANNELS 3 Zrotation Yrotation Xrotation
                        JOINT RightHandMiddle4
                        {
                          OFFSET -3.00024 2e-06 -4e-06
                          CHANNELS 3 Zrotation Yrotation Xrotation
                          JOINT RightHandMiddleEnd
                          {
                            OFFSET -2.321477 -4e-06 -4e-06
                            CHANNELS 3 Zrotation Yrotation Xrotation
                          }
                        }
                      }
                    }
                  }
                  JOINT RightHandRing1
                  {
                    OFFSET -2.885654 0.293261 -0.119232
                    CHANNELS 3 Zrotation Yrotation Xrotation
                    JOINT RightHandRing2
                    {
                      OFFSET -6.032835 -1e-06 -4e-06
                      CHANNELS 3 Zrotation Yrotation Xrotation
                      JOINT RightHandRing3
                      {
                        OFFSET -4.33881 0.0 -4e-06
                        CHANNELS 3 Zrotation Yrotation Xrotation
                        JOINT RightHandRing4
                        {
                          OFFSET -2.654903 -4e-06 -4e-06
                          CHANNELS 3 Zrotation Yrotation Xrotation
                          JOINT RightHandRingEnd
                          {
                            OFFSET -1.935122 0.0 4e-06
                            CHANNELS 3 Zrotation Yrotation Xrotation
                          }
                        }
                      }
                    }
                  }
                  JOINT RightHandPinky1
                  {
                    OFFSET -2.866241 1.503904 -0.60527
                    CHANNELS 3 Zrotation Yrotation Xrotation
                    JOINT RightHandPinky2
                    {
                      OFFSET -5.553177 -2e-06 0.0
                      CHANNELS 3 Zrotation Yrotation Xrotation
                      JOINT RightHandPinky3
                      {
                        OFFSET -3.062664 -1e-06 -4e-06
                        CHANNELS 3 Zrotation Yrotation Xrotation
                        JOINT RightHandPinky4
                        {
                          OFFSET -1.546529 2e-06 4e-06
                          CHANNELS 3 Zrotation Yrotation Xrotation
                          JOINT RightHandPinkyEnd
                          {
                            OFFSET -1.952341 0.0 -4e-06
                            CHANNELS 3 Zrotation Yrotation Xrotation
                          }
                        }
                      }
                    }
                  }
                }
              }
            }
          }
        }
      }
    }
    JOINT LeftLeg
    {
      OFFSET -8.443107 2.567604 10.043214
      CHANNELS 3 Zrotation Yrotation Xrotation
      JOINT LeftShin
      {
        OFFSET 43.229198 1e-06 -1e-06
        CHANNELS 3 Zrotation Yrotation Xrotation
        JOINT LeftFoot
        {
          OFFSET 42.298611 1e-06 1e-06
          CHANNELS 3 Zrotation Yrotation Xrotation
          JOINT LeftToeBase
          {
            OFFSET 14.165858 1e-06 0.0
            CHANNELS 3 Zrotation Yrotation Xrotation
            JOINT LeftToeEnd
            {
              OFFSET 6.7141 -0.234461 0.0
              CHANNELS 3 Zrotation Yrotation Xrotation
            }
          }
        }
      }
    }
    JOINT RightLeg
    {
      OFFSET -8.303923 2.592729 -10.047278
      CHANNELS 3 Zrotation Yrotation Xrotation
      JOINT RightShin
      {
        OFFSET -43.369682 0.0 1e-06
        CHANNELS 3 Zrotation Yrotation Xrotation
        JOINT RightFoot
        {
          OFFSET -42.260784 4e-06 2e-06
          CHANNELS 3 Zrotation Yrotation Xrotation
          JOINT RightToeBase
          {
            OFFSET -14.222245 -2e-06 -1e-06
            CHANNELS 3 Zrotation Yrotation Xrotation
            JOINT RightToeEnd
            {
              OFFSET -6.660062 0.232574 -2e-06
              CHANNELS 3 Zrotation Yrotation Xrotation
            }
          }
        }
      }
    }
  }
}
MOTION
Frames: 4
Frame Time: 0.03333333333333333
0.0 0.0 0.0 0.0 -0.0 0.0 1.231743 92.561378 173.102112 90.138695 3.102991 91.53611 1.896406 -2.723186 -0.07126 -10.296384 -1.117284 0.161333 18.65798 -5.192575 -2.986695 28.267059 -6.312297 2.791901 -2.683935 -0.982343 -0.172377 -41.264397 -0.402049 0.276148 6e-06 -1e-06 0.0 0.069643 5e-06 -0.019922 0.075642 -0.056347 -0.034106 0.087663 0.047875 -0.006068 -138.57135 -68.56884 160.697266 18.452553 -27.221857 8.237885 35.88205 -0.588546 0.011883 0.015102 -3.347084 26.550957 17.636629 -26.322741 52.411213 -19.466663 -14.395596 29.410398 -0.0 -8.774819 -2e-06 16.385622 -17.952047 5.978058 -0.609777 -1.795655 -3.889331 -4.807088 -11.046811 -2.93785 6e-06 -20.976019 -3e-06 -5.019968 -25.033558 -4.031879 5e-06 0.0 1e-06 -10.634533 -5.686971 -3.565589 10.573271 -17.922951 -3.113899 3e-06 -13.82121 -1e-06 -0.501776 -31.181505 -4.027016 -11.814107 -60.523762 7.945354 -13.982712 -7.150199 -2.875042 13.772727 -8.40149 -3.218241 0.347736 -34.211544 0.771652 -0.96303 -17.733366 2.621022 0.0 1e-06 1e-06 -17.346418 -20.095221 -4.201784 21.757557 -1.638374 3.866428 1e-06 -6.338824 1e-06 -1.697587 -22.591743 -6.194008 1e-06 -4e-06 -0.0 55.332691 -69.580154 146.108765 21.335529 -40.607006 22.400732 39.510502 0.708873 0.528399 -0.734898 2.819793 13.446673 22.182114 -20.375898 49.933327 -16.701815 -16.743528 28.476536 -4e-06 -12.690601 -2e-06 16.644133 -17.56419 2.235794 -0.105921 -1.513857 -4.275883 -5.039041 -5.61287 -2.953556 4e-06 -11.020523 -1e-06 -6.111296 -15.895334 -3.840471 0.0 0.0 -0.0 -10.283371 -5.680287 -4.341839 11.028294 -11.302407 -2.372636 -1.384269 -14.23858 -6.320124 -0.62544 -26.924189 -3.827599 -3.925126 -49.999798 -4.244642 -13.708526 -7.363475 -3.720937 18.14115 -14.052742 -3.242674 6e-06 -18.787271 -1e-06 -0.429712 -8.456045 2.555504 -0.0 -0.0 -0.0 -15.923534 -20.094484 -5.473584 30.41921 -7.190827 1.735924 3e-06 -8.162927 -1e-06 -1.861902 -22.861469 -6.167945 -0.0 -3e-06 -2e-06 174.997086 -9.686506 -22.7167 44.877251 -0.263033 0.512656 -102.384445 -2.585078 -7.361859 -4.690964 1.447883 2.180959 -0.999998 0.0 0.0 -30.396818 -10.683975 -19.165997 43.496204 -0.000802 -0.098213 -77.560547 -13.519635 -7.597219 -7.124182 0.887603 1.699558 -1.000002 0.0 -0.0 
0.0 0.0 0.0 0.0 -0.0 0.0 0.408573 92.443916 174.578384 90.011162 2.93555 91.728584 1.810806 -2.493427 -0.090446 -10.321672 -1.07798 0.048889 18.622648 -4.850117 -3.071254 28.143084 -6.280079 2.79473 -2.692476 -0.957342 -0.191736 -41.322903 -0.353876 0.328772 5e-06 -1e-06 -0.0 0.061295 0.003986 -0.035739 0.097803 -0.046678 -0.048342 0.111163 0.046839 -0.022377 -138.298553 -68.592278 160.457199 18.43964 -27.536734 7.92131 35.776299 -0.579243 0.021211 0.07394 -3.25283 26.353096 17.636625 -26.322729 52.411205 -19.466665 -14.395597 29.410395 -1e-06 -8.774819 -1e-06 16.431967 -17.883444 5.915849 -0.609775 -1.795654 -3.889327 -4.807087 -11.046811 -2.937849 6e-06 -20.976017 -2e-06 -5.019967 -25.033556 -4.031883 6e-06 -0.0 1e-06 -10.634532 -5.686968 -3.565588 10.573275 -17.922947 -3.113901 4e-06 -13.821206 -0.0 -0.501775 -31.181498 -4.027014 -11.715745 -60.553276 7.921272 -13.982714 -7.150199 -2.875044 13.772731 -8.401491 -3.21824 0.347736 -34.211544 0.771651 -0.963026 -17.733366 2.621017 0.0 1e-06 2e-06 -17.346415 -20.095215 -4.201785 21.757555 -1.638376 3.866429 2e-06 -6.338823 0.0 -1.697587 -22.59174 -6.194008 1e-06 -4e-06 -3e-06 55.625942 -69.778427 145.829803 21.794916 -40.405556 22.055378 39.65173 0.761228 0.552472 -0.73348 2.804466 13.343883 22.182119 -20.3759 49.933323 -16.701813 -16.74353 28.476532 -4e-06 -12.690602 -2e-06 16.656622 -17.582441 2.21603 -0.10592 -1.513855 -4.275882 -5.039042 -5.612872 -2.953556 5e-06 -11.020524 -2e-06 -6.111299 -15.895334 -3.840467 -1e-06 -0.0 -0.0 -10.283372 -5.680288 -4.341839 11.028296 -11.302406 -2.372633 -1.384269 -14.238579 -6.32012 -0.625439 -26.924191 -3.827598 -3.86277 -49.981888 -4.285798 -13.708524 -7.363475 -3.720939 18.14115 -14.052739 -3.242674 5e-06 -18.78727 -1e-06 -0.429712 -8.456043 2.555507 -1e-06 -1e-06 -0.0 -15.923536 -20.094482 -5.473585 30.419214 -7.190827 1.735928 3e-06 -8.162927 -2e-06 -1.861902 -22.861469 -6.167941 -0.0 -3e-06 -1e-06 176.041733 -10.224723 -22.29542 44.233566 -0.308383 0.587025 -102.663445 -2.692757 -8.19346 -4.847456 1.453127 2.184467 -0.999999 -0.0 -0.0 -30.223976 -10.221015 -19.118324 45.146935 -0.007355 -0.110162 -79.717285 -13.962873 -7.010245 -6.793182 0.879215 1.704727 -1.000002 2e-06 1e-06 
0.0 0.0 0.0 0.0 -0.0 0.0 -0.490413 92.372963 176.040207 89.866318 2.738468 91.891731 1.709732 -2.277381 -0.111997 -10.347274 -1.056971 -0.057418 18.533583 -4.525076 -3.152366 27.975355 -6.177575 2.793816 -2.692808 -0.931264 -0.194757 -41.321251 -0.297784 0.347476 6e-06 0.0 0.0 0.05603 0.004268 -0.053775 0.110037 -0.039653 -0.066111 0.124227 0.041181 -0.039823 -138.005722 -68.700485 160.16452 18.399269 -27.840155 7.896122 35.75885 -0.528336 0.056837 0.097898 -3.201203 26.294073 17.636625 -26.322729 52.411182 -19.466656 -14.395598 29.410385 1e-06 -8.774819 -0.0 16.437002 -17.799715 5.876289 -0.609775 -1.795653 -3.889324 -4.807088 -11.046809 -2.937847 4e-06 -20.976015 -1e-06 -5.019971 -25.033556 -4.031877 6e-06 0.0 1e-06 -10.634533 -5.686969 -3.565583 10.573269 -17.922947 -3.113897 2e-06 -13.821206 -0.0 -0.50178 -31.181498 -4.027012 -11.586222 -60.506153 7.85223 -13.982712 -7.150197 -2.87504 13.772726 -8.401491 -3.218242 0.347732 -34.211544 0.771653 -0.963031 -17.733362 2.62102 0.0 1e-06 1e-06 -17.346418 -20.095215 -4.201779 21.757557 -1.638374 3.866428 1e-06 -6.338823 0.0 -1.697589 -22.591745 -6.194006 1e-06 -2e-06 -2e-06 55.800541 -69.905632 145.634979 22.160904 -40.18074 21.741343 39.938923 0.825411 0.573194 -0.746132 2.819848 13.268944 22.182106 -20.375898 49.933315 -16.701809 -16.74353 28.476528 -3e-06 -12.6906 -2e-06 16.679459 -17.564837 2.195668 -0.10592 -1.513855 -4.275879 -5.03904 -5.612872 -2.953557 3e-06 -11.020525 -1e-06 -6.111297 -15.895334 -3.840471 -0.0 -0.0 -0.0 -10.283369 -5.680288 -4.34184 11.028292 -11.302405 -2.372633 -1.384269 -14.238581 -6.32012 -0.62544 -26.924191 -3.8276 -3.845587 -49.971054 -4.28388 -13.708523 -7.363475 -3.720938 18.141148 -14.05274 -3.242676 5e-06 -18.78727 0.0 -0.429711 -8.456045 2.555501 -0.0 -1e-06 1e-06 -15.923534 -20.094482 -5.473582 30.41921 -7.190824 1.735924 2e-06 -8.162927 1e-06 -1.861902 -22.861469 -6.167942 0.0 -1e-06 -0.0 177.165604 -10.799999 -21.939585 43.311821 -0.347646 0.656491 -102.753036 -2.798001 -8.990192 -5.038171 1.447109 2.180667 -0.999999 0.0 -0.0 -30.029648 -9.697225 -19.238997 46.460476 -0.006384 -0.13307 -81.476158 -14.307405 -6.510363 -6.485526 0.869342 1.707037 -1.000002 -0.0 -0.0 
0.0 0.0 0.0 0.0 -0.0 0.0 -1.444685 92.341591 177.472992 89.715492 2.523295 92.017616 1.608531 -2.06351 -0.137178 -10.373016 -1.043813 -0.161591 18.399893 -4.24077 -3.240771 27.739159 -6.094455 2.777699 -2.697661 -0.90034 -0.149951 -41.294998 -0.249096 0.338372 7e-06 1e-06 -0.0 0.050924 0.005064 -0.063678 0.106614 -0.030544 -0.076578 0.122734 0.034351 -0.048813 -137.833817 -68.797745 159.997726 18.31056 -28.054291 8.067521 35.794701 -0.481668 0.093719 0.088337 -3.129178 26.362432 17.636629 -26.322739 52.411205 -19.46666 -14.395597 29.410395 0.0 -8.774822 -1e-06 16.400469 -17.72784 5.871226 -0.609778 -1.795655 -3.88933 -4.807088 -11.046811 -2.937847 4e-06 -20.976019 -1e-06 -5.019973 -25.03356 -4.031882 7e-06 0.0 -1e-06 -10.634535 -5.686971 -3.565588 10.573271 -17.922949 -3.113899 2e-06 -13.82121 -2e-06 -0.50178 -31.181505 -4.027016 -11.426318 -60.443775 7.752843 -13.982714 -7.150198 -2.875043 13.772727 -8.401491 -3.218241 0.34773 -34.211555 0.771655 -0.963031 -17.73337 2.621019 -1e-06 2e-06 0.0 -17.346422 -20.095221 -4.201783 21.757557 -1.638373 3.866431 1e-06 -6.338824 0.0 -1.697591 -22.591747 -6.194006 1e-06 -3e-06 -3e-06 55.792961 -69.990913 145.596725 22.389692 -39.950668 21.418276 40.357193 0.890148 0.597397 -0.734427 2.855957 13.134411 22.182121 -20.375893 49.933323 -16.701815 -16.743528 28.476532 -2e-06 -12.690603 -3e-06 16.705385 -17.531446 2.180029 -0.105919 -1.513856 -4.275878 -5.039043 -5.612873 -2.953557 2e-06 -11.020525 -1e-06 -6.111301 -15.895336 -3.840475 -1e-06 -0.0 1e-06 -10.283373 -5.680287 -4.341837 11.028294 -11.302406 -2.372635 -1.384271 -14.238581 -6.320124 -0.62544 -26.924191 -3.827602 -3.865721 -49.984989 -4.243023 -13.708527 -7.363475 -3.720939 18.14115 -14.052739 -3.242676 6e-06 -18.78727 -3e-06 -0.429711 -8.456045 2.555506 -0.0 -1e-06 -0.0 -15.923539 -20.094486 -5.473584 30.419214 -7.190826 1.735928 2e-06 -8.162928 1e-06 -1.861903 -22.861469 -6.167945 1e-06 -3e-06 -0.0 178.369415 -11.378011 -21.650297 42.120968 -0.38349 0.728926 -102.660049 -2.912385 -9.792884 -5.288079 1.443669 2.174528 -0.999999 -0.0 0.0 -29.668547 -9.063167 -19.43243 47.472412 -0.000288 -0.160421 -83.239799 -14.647194 -6.061692 -6.217243 0.859247 1.707758 -1.000002 -1e-06 0.0 
